inDegrees=yes
name=ik_Xsens_quaternion (2)
DataType=double
version=3
OpenSimVersion=4.4-2022-07-23-0e9fedc
endheader
time	pelvis_tilt	pelvis_list	pelvis_rotation	pelvis_tx	pelvis_ty	pelvis_tz	hip_flexion_r	hip_adduction_r	hip_rotation_r	knee_angle_r	knee_angle_r_beta	ankle_angle_r	subtalar_angle_r	mtp_angle_r	hip_flexion_l	hip_adduction_l	hip_rotation_l	knee_angle_l	knee_angle_l_beta	ankle_angle_l	subtalar_angle_l	mtp_angle_l	lumbar_extension	lumbar_bending	lumbar_rotation	arm_flex_r	arm_add_r	arm_rot_r	elbow_flex_r	pro_sup_r	wrist_flex_r	wrist_dev_r	arm_flex_l	arm_add_l	arm_rot_l	elbow_flex_l	pro_sup_l	wrist_flex_l	wrist_dev_l
6.07	20525.16654642315	-145435.9211334296	-42999.93993297158	0	0.93	0	25.94439205947625	-6.679815984427152	-21.62775837957746	1.310560386312405	0.0228735937873603	2.017232866096347	-1.663895028335597e-17	4.254861615626045e-23	5.959917724622388	0.2488583999814981	-27.30319427338073	0.04598255333619974	0.0008025469541905885	8.386965726450649	4.446752030544933e-19	1.532454409632886e-22	-1.518266039196599e-26	1.983919891145347e-22	-2.054140929192734e-26	-4.633823544232237e-17	-6.757815377889207e-22	-3.165437649015263e-14	0	0	3.116126601269637e-22	-2.21072928691239e-22	-2.399194990387616e-13	2.109410857100017e-16	-3.164237969789612e-14	0	0	-1.167690467535392e-21	1.0270259179083e-22
6.08	20525.25857703614	-145436.0172808809	-43000.10521311562	0	0.93	0	25.78433490901952	-6.743139786040568	-22.4617365059553	0.8625591292805806	0.01505449679908156	2.151887081296003	0	0	5.834452951647901	0.2882864112837855	-27.46136640226898	0.04630831145278142	0.0008082325058900344	8.414236172254855	0	0	0	0	0	0	0	0	1.019287443331721e-45	0	0	0	0	0	0	1.332914348972251e-45	0	0	0
6.09	20525.36619519574	-145436.1200709066	-43000.25295444062	0	0.93	0	25.6601329552826	-6.863781142704293	-23.2567987901914	0.5649820907913755	0.009860797699111037	2.363624126549818	-1.422020838433547e-22	-5.009510123479588e-27	5.730892394380588	0.3331564171836678	-27.61444330574569	0.04680096620029135	0.0008168309533096639	8.422835261256976	-5.456794009796141e-22	-6.29581831485058e-27	-3.003870644592306e-29	-1.267288475427396e-26	-4.25625629686992e-29	-3.847465376310428e-20	-1.563213560671829e-24	-5.59398719010388e-17	3.483089379940031e-15	3.483089242277719e-15	1.011751489548824e-26	-1.089449809345998e-27	1.057490583177681e-16	-6.707603182165781e-18	-2.564118061320444e-18	3.483089320167852e-15	3.483089434066877e-15	-1.65391170776922e-27	1.105690111040255e-27
6.100000000000001	20525.44930546868	-145436.2363662226	-43000.35384033681	0	0.93	0	25.56827122025551	-7.013925276993558	-24.05867769398769	0.3885998760822939	0.006782347310477992	2.636297852061036	0	0	5.598229473574735	0.3921636625968671	-27.74488498556792	0.04707678433352885	0.0008216448878713628	8.425548971373477	0	0	0	0	0	0	0	0	0	0	0	0	0	0	0	0	0	0	0
6.11	20525.54612367435	-145436.3598709576	-43000.4277521836	0	0.93	0	25.4827282641392	-7.215685593664748	-24.84316632184121	0.2835317588215672	0.004948562725406825	2.940270120613338	0	0	5.456673352922232	0.4350007043050632	-27.85378081095992	0.04791469328534211	0.0008362691579124387	8.437539078046342	0	0	0	0	0	0	0	0	0	0	0	0	0	0	0	0	0	0	0
6.12	20525.63398077848	-145436.4967822107	-43000.46618481154	0	0.93	0	25.38831387332993	-7.409650256902585	-25.61827512446972	0.2235280895423488	0.003901301133206691	3.245883081371816	-1.160509869249154e-17	-2.000680750618872e-23	5.312167612521685	0.5227289196417871	-27.94206347565321	0.04867945449395762	0.0008496167589943106	8.450115385433552	2.404717160637231e-19	-2.646024697453818e-22	-3.055704936811569e-27	8.794024492914949e-23	2.018815525206615e-26	2.01624862410932e-17	-3.366366950599212e-22	-4.217968975227733e-14	2.455094495366763e-15	2.455094379850024e-15	-1.880378888098983e-22	-8.92175411523004e-23	1.792639776642296e-13	6.206531225262662e-15	6.471819311687245e-15	2.455095028588892e-15	2.45509452417534e-15	8.36315148207559e-23	-8.336234017156666e-23
6.13	20525.71506276755	-145436.63686907	-43000.4724775335	0	0.93	0	25.24226534474813	-7.623146321493468	-26.37060113242747	0.1900351448785756	0.003316738972635584	3.496331676826744	0	0	5.153954193223329	0.5827840276665419	-28.00198334126317	0.04926107283769918	0.0008597679140825968	8.471502060302894	0	0	0	0	0	0	0	0	0	0	0	0	0	0	0	0	5.261786339342783e-39	0	0
6.140000000000001	20525.78760777882	-145436.7868195238	-43000.43752915874	0	0.93	0	25.05395479812341	-7.876029056516814	-27.08294202355814	0.1677607341556923	0.002927977166579739	3.701293962732377	0	0	4.978960399900598	0.6454173273203911	-28.0372358115912	0.04979172432218257	0.0008690295296674277	8.473870676416297	0	0	0	0	0	0	0	0	0	2.391405155509038e-45	0	0	0	0	0	2.27379506589384e-45	2.391405155509038e-45	0	0
6.15	20525.8689608228	-145436.9411144179	-43000.38676365539	0	0.93	0	24.82661879845791	-8.146268911665709	-27.74418652026842	0.1506411522072079	0.002629184095013701	3.868469691393466	0	0	4.802020226272932	0.7243851132973438	-28.09726096753662	0.05067908329917245	0.0008845168654630297	8.485167923812297	0	0	0	0	0	0	0	0	2.012844976369154e-41	0	0	0	0	0	0	2.012844976369154e-41	0	0	0
6.16	20525.94969799068	-145437.0984273964	-43000.32310535665	0	0.93	0	24.56063953340611	-8.414594493663705	-28.32149506174296	0.1366433101841346	0.002384875663537048	4.013397891612754	0	0	4.627916396702545	0.8076848594796979	-28.16022966664431	0.05200143722486249	0.0009075962953429932	8.519734791847347	0	0	0	0	0	0	0	0	3.134069071471476e-39	0	0	0	0	0	0	0	0	0	0
6.17	20526.01855008016	-145437.2688648807	-43000.21574661761	0	0.93	0	24.25402191496191	-8.70051291008874	-28.82971886279227	0.1279464402902047	0.002233086649270401	4.136470045048386	-3.256004491995969e-21	-1.249872664612773e-27	4.415916509279427	0.8769477781434696	-28.18970729423898	0.05305741783922946	0.0009260266339009295	8.53745974611895	-1.362136270649319e-23	6.323654121851968e-28	6.043357907100793e-30	-3.397937119873352e-28	2.297610918778863e-29	7.709295063172829e-22	1.520842359286748e-23	9.787766182165212e-18	0	0	7.917415111030962e-28	-6.075155797335834e-31	1.176479440582115e-16	-1.516044834367182e-17	3.355387933672852e-18	0	0	1.153974534403123e-27	-1.345325190512024e-27
6.18	20526.08112370934	-145437.4413403364	-43000.0967068766	0	0.93	0	23.90525440248079	-8.961170467874501	-29.27646457553776	0.1232116998519019	0.002150449839394698	4.220880302812364	0	0	4.188417590993584	0.962986137923161	-28.21545281749708	0.05399862027147151	0.0009424537152713321	8.570017305386539	0	0	0	0	0	0	0	0	0	0	0	0	0	0	0	0	0	0	0
6.19	20526.14180182719	-145437.6138425121	-42999.96305031235	0	0.93	0	23.51253346167543	-9.212415539906296	-29.65193531776888	0.1210431343663177	0.002112601231626144	4.246777458853054	0	0	3.959497681948245	1.031450335247304	-28.21133204507165	0.05555915993746097	0.0009696902705508208	8.577063824675465	0	0	0	0	0	0	0	0	0	0	0	0	0	0	0	2.514824007450331e-39	3.546021746150657e-39	0	0
6.2	20526.21621767852	-145437.7779899098	-42999.84059882595	0	0.93	0	23.12030797535444	-9.413016852044136	-29.920800285835	0.1205981998423471	0.002104835659227062	4.231151816012025	0	0	3.721893414280923	1.092737172214329	-28.20505060042957	0.05767130426974574	0.001006554143426527	8.586068077124251	0	0	0	0	0	0	0	0	8.331439696269221e-39	1.114714020543233e-39	0	0	0	0	0	8.331439696269221e-39	1.114714020543233e-39	0	0
6.21	20526.29929165925	-145437.9324495417	-42999.71904625072	0	0.93	0	22.71929289856435	-9.598370050970507	-30.11197253731813	0.1221387353211228	0.002131723075575487	4.178336686401917	0	0	3.488097516312784	1.132334473538882	-28.18357589542505	0.05991121647394116	0.001045647986345341	8.589646106650616	0	0	0	0	0	0	0	0	0	0	0	0	0	0	0	0	0	0	0
